<mxfile host="app.diagrams.net" agent="Mozilla/5.0 (Windows NT 10.0; Win64; x64) AppleWebKit/537.36 (KHTML, like Gecko) Chrome/136.0.0.0 Safari/537.36 Edg/136.0.0.0" version="27.0.9">
  <diagram name="Страница — 1" id="AptloG-3GfRrmKiSze6C">
    <mxGraphModel dx="979" dy="573" grid="1" gridSize="10" guides="1" tooltips="1" connect="1" arrows="1" fold="1" page="1" pageScale="1" pageWidth="827" pageHeight="1169" math="0" shadow="0">
      <root>
        <mxCell id="0" />
        <mxCell id="1" parent="0" />
        <mxCell id="xbjdM_kGgOOUxO4SFrQZ-1" value="Нехватка времени на хобби" style="triangle;whiteSpace=wrap;html=1;" vertex="1" parent="1">
          <mxGeometry x="680" y="200" width="100" height="160" as="geometry" />
        </mxCell>
        <mxCell id="xbjdM_kGgOOUxO4SFrQZ-2" value="" style="endArrow=none;html=1;rounded=0;" edge="1" parent="1">
          <mxGeometry width="50" height="50" relative="1" as="geometry">
            <mxPoint x="80" y="280" as="sourcePoint" />
            <mxPoint x="680" y="280" as="targetPoint" />
          </mxGeometry>
        </mxCell>
        <mxCell id="xbjdM_kGgOOUxO4SFrQZ-3" value="" style="endArrow=none;html=1;rounded=0;" edge="1" parent="1">
          <mxGeometry width="50" height="50" relative="1" as="geometry">
            <mxPoint x="290" y="280" as="sourcePoint" />
            <mxPoint x="170" y="80" as="targetPoint" />
          </mxGeometry>
        </mxCell>
        <mxCell id="xbjdM_kGgOOUxO4SFrQZ-4" value="Работа" style="rounded=0;whiteSpace=wrap;html=1;" vertex="1" parent="1">
          <mxGeometry x="110" y="40" width="120" height="40" as="geometry" />
        </mxCell>
        <mxCell id="xbjdM_kGgOOUxO4SFrQZ-5" value="&lt;font style=&quot;font-size: 10px;&quot;&gt;Переработки, ненормированный график&lt;/font&gt;" style="rounded=0;whiteSpace=wrap;html=1;fillColor=#f8cecc;strokeColor=#b85450;" vertex="1" parent="1">
          <mxGeometry x="140" y="110" width="120" height="50" as="geometry" />
        </mxCell>
        <mxCell id="xbjdM_kGgOOUxO4SFrQZ-6" value="&lt;span style=&quot;font-size: 10px;&quot;&gt;срочные задачи&lt;/span&gt;" style="rounded=0;whiteSpace=wrap;html=1;fillColor=#f8cecc;strokeColor=#b85450;" vertex="1" parent="1">
          <mxGeometry x="190" y="200" width="120" height="50" as="geometry" />
        </mxCell>
        <mxCell id="xbjdM_kGgOOUxO4SFrQZ-8" value="" style="endArrow=none;html=1;rounded=0;" edge="1" parent="1" source="xbjdM_kGgOOUxO4SFrQZ-11">
          <mxGeometry width="50" height="50" relative="1" as="geometry">
            <mxPoint x="530" y="280" as="sourcePoint" />
            <mxPoint x="410" y="80" as="targetPoint" />
            <Array as="points">
              <mxPoint x="440" y="130" />
            </Array>
          </mxGeometry>
        </mxCell>
        <mxCell id="xbjdM_kGgOOUxO4SFrQZ-9" value="Учеба" style="rounded=0;whiteSpace=wrap;html=1;" vertex="1" parent="1">
          <mxGeometry x="350" y="40" width="120" height="40" as="geometry" />
        </mxCell>
        <mxCell id="xbjdM_kGgOOUxO4SFrQZ-10" value="Большой объём курсовых и лабораторных" style="rounded=0;whiteSpace=wrap;html=1;fillColor=#dae8fc;strokeColor=#6c8ebf;" vertex="1" parent="1">
          <mxGeometry x="384" y="100" width="120" height="60" as="geometry" />
        </mxCell>
        <mxCell id="xbjdM_kGgOOUxO4SFrQZ-12" value="" style="endArrow=none;html=1;rounded=0;" edge="1" parent="1" target="xbjdM_kGgOOUxO4SFrQZ-11">
          <mxGeometry width="50" height="50" relative="1" as="geometry">
            <mxPoint x="530" y="280" as="sourcePoint" />
            <mxPoint x="410" y="80" as="targetPoint" />
          </mxGeometry>
        </mxCell>
        <mxCell id="xbjdM_kGgOOUxO4SFrQZ-11" value="Подготовка к сессии" style="rounded=0;whiteSpace=wrap;html=1;fillColor=#dae8fc;strokeColor=#6c8ebf;" vertex="1" parent="1">
          <mxGeometry x="420" y="190" width="120" height="40" as="geometry" />
        </mxCell>
        <mxCell id="xbjdM_kGgOOUxO4SFrQZ-13" value="" style="endArrow=none;html=1;rounded=0;" edge="1" parent="1" source="xbjdM_kGgOOUxO4SFrQZ-15">
          <mxGeometry width="50" height="50" relative="1" as="geometry">
            <mxPoint x="160" y="460" as="sourcePoint" />
            <mxPoint x="290" y="280" as="targetPoint" />
          </mxGeometry>
        </mxCell>
        <mxCell id="xbjdM_kGgOOUxO4SFrQZ-14" value="Личная жизнь" style="rounded=0;whiteSpace=wrap;html=1;" vertex="1" parent="1">
          <mxGeometry x="110" y="460" width="120" height="40" as="geometry" />
        </mxCell>
        <mxCell id="xbjdM_kGgOOUxO4SFrQZ-16" value="" style="endArrow=none;html=1;rounded=0;" edge="1" parent="1" target="xbjdM_kGgOOUxO4SFrQZ-15">
          <mxGeometry width="50" height="50" relative="1" as="geometry">
            <mxPoint x="160" y="460" as="sourcePoint" />
            <mxPoint x="290" y="280" as="targetPoint" />
          </mxGeometry>
        </mxCell>
        <mxCell id="xbjdM_kGgOOUxO4SFrQZ-15" value="Семейные обязанности" style="rounded=0;whiteSpace=wrap;html=1;fillColor=#fff2cc;strokeColor=#d6b656;" vertex="1" parent="1">
          <mxGeometry x="190" y="310" width="120" height="60" as="geometry" />
        </mxCell>
        <mxCell id="xbjdM_kGgOOUxO4SFrQZ-17" value="Мелкие ссоры" style="rounded=0;whiteSpace=wrap;html=1;fillColor=#fff2cc;strokeColor=#d6b656;" vertex="1" parent="1">
          <mxGeometry x="130" y="400" width="120" height="40" as="geometry" />
        </mxCell>
        <mxCell id="xbjdM_kGgOOUxO4SFrQZ-18" value="" style="endArrow=none;html=1;rounded=0;" edge="1" parent="1" source="xbjdM_kGgOOUxO4SFrQZ-20">
          <mxGeometry width="50" height="50" relative="1" as="geometry">
            <mxPoint x="410" y="460" as="sourcePoint" />
            <mxPoint x="530" y="280" as="targetPoint" />
          </mxGeometry>
        </mxCell>
        <mxCell id="xbjdM_kGgOOUxO4SFrQZ-19" value="Внешние факторы" style="rounded=0;whiteSpace=wrap;html=1;" vertex="1" parent="1">
          <mxGeometry x="350" y="460" width="120" height="40" as="geometry" />
        </mxCell>
        <mxCell id="xbjdM_kGgOOUxO4SFrQZ-22" value="" style="endArrow=none;html=1;rounded=0;" edge="1" parent="1" target="xbjdM_kGgOOUxO4SFrQZ-21">
          <mxGeometry width="50" height="50" relative="1" as="geometry">
            <mxPoint x="410" y="460" as="sourcePoint" />
            <mxPoint x="530" y="280" as="targetPoint" />
          </mxGeometry>
        </mxCell>
        <mxCell id="xbjdM_kGgOOUxO4SFrQZ-21" value="&lt;font style=&quot;font-size: 11px;&quot;&gt;Неэффективное планирование времени&lt;/font&gt;" style="rounded=0;whiteSpace=wrap;html=1;fillColor=#d5e8d4;strokeColor=#82b366;" vertex="1" parent="1">
          <mxGeometry x="384" y="390" width="120" height="60" as="geometry" />
        </mxCell>
        <mxCell id="xbjdM_kGgOOUxO4SFrQZ-23" value="" style="endArrow=none;html=1;rounded=0;" edge="1" parent="1" source="xbjdM_kGgOOUxO4SFrQZ-21" target="xbjdM_kGgOOUxO4SFrQZ-20">
          <mxGeometry width="50" height="50" relative="1" as="geometry">
            <mxPoint x="467" y="390" as="sourcePoint" />
            <mxPoint x="530" y="280" as="targetPoint" />
          </mxGeometry>
        </mxCell>
        <mxCell id="xbjdM_kGgOOUxO4SFrQZ-20" value="Пробки и время на дорогу" style="rounded=0;whiteSpace=wrap;html=1;fillColor=#d5e8d4;strokeColor=#82b366;" vertex="1" parent="1">
          <mxGeometry x="430" y="320" width="120" height="40" as="geometry" />
        </mxCell>
      </root>
    </mxGraphModel>
  </diagram>
</mxfile>
